<svg width="23" height="23" viewBox="0 0 23 23" fill="none" xmlns="http://www.w3.org/2000/svg">
    <path d="M11.8076 5.88965C8.70215 5.88965 6.19727 8.39453 6.19727 11.5C6.19727 14.6055 8.70215 17.1103 11.8076 17.1103C14.9131 17.1103 17.418 14.6055 17.418 11.5C17.418 8.39453 14.9131 5.88965 11.8076 5.88965ZM11.8076 15.1475C9.80078 15.1475 8.16016 13.5117 8.16016 11.5C8.16016 9.48828 9.7959 7.85254 11.8076 7.85254C13.8193 7.85254 15.4551 9.48828 15.4551 11.5C15.4551 13.5117 13.8145 15.1475 11.8076 15.1475V15.1475ZM18.9561 5.66016C18.9561 6.3877 18.3701 6.96875 17.6475 6.96875C16.9199 6.96875 16.3389 6.38281 16.3389 5.66016C16.3389 4.9375 16.9248 4.35156 17.6475 4.35156C18.3701 4.35156 18.9561 4.9375 18.9561 5.66016ZM22.6719 6.98828C22.5889 5.23535 22.1885 3.68262 20.9043 2.40332C19.625 1.12402 18.0723 0.723633 16.3193 0.635742C14.5127 0.533203 9.09766 0.533203 7.29102 0.635742C5.54297 0.71875 3.99023 1.11914 2.70605 2.39844C1.42188 3.67773 1.02637 5.23047 0.938477 6.9834C0.835938 8.79004 0.835938 14.2051 0.938477 16.0117C1.02148 17.7646 1.42188 19.3174 2.70605 20.5967C3.99023 21.876 5.53809 22.2764 7.29102 22.3643C9.09766 22.4668 14.5127 22.4668 16.3193 22.3643C18.0723 22.2812 19.625 21.8809 20.9043 20.5967C22.1836 19.3174 22.584 17.7646 22.6719 16.0117C22.7744 14.2051 22.7744 8.79492 22.6719 6.98828V6.98828ZM20.3379 17.9502C19.957 18.9072 19.2197 19.6445 18.2578 20.0303C16.8174 20.6016 13.3994 20.4697 11.8076 20.4697C10.2158 20.4697 6.79297 20.5967 5.35742 20.0303C4.40039 19.6494 3.66309 18.9121 3.27734 17.9502C2.70605 16.5098 2.83789 13.0918 2.83789 11.5C2.83789 9.9082 2.71094 6.48535 3.27734 5.0498C3.6582 4.09277 4.39551 3.35547 5.35742 2.96973C6.79785 2.39844 10.2158 2.53027 11.8076 2.53027C13.3994 2.53027 16.8223 2.40332 18.2578 2.96973C19.2148 3.35059 19.9521 4.08789 20.3379 5.0498C20.9092 6.49023 20.7773 9.9082 20.7773 11.5C20.7773 13.0918 20.9092 16.5146 20.3379 17.9502Z"
          fill="#8E9097"/>
</svg>
