<svg width="26" height="21" viewBox="0 0 26 21" fill="none" xmlns="http://www.w3.org/2000/svg">
    <path d="M22.5686 5.40803C22.5845 5.6301 22.5845 5.85222 22.5845 6.07429C22.5845 12.8477 17.4291 20.6523 8.00644 20.6523C5.10352 20.6523 2.40684 19.8115 0.138428 18.3522C0.550879 18.3998 0.947412 18.4156 1.37573 18.4156C3.771 18.4156 5.97598 17.6067 7.73677 16.2266C5.48423 16.179 3.59653 14.7037 2.94614 12.6733C3.26343 12.7208 3.58066 12.7526 3.91382 12.7526C4.37383 12.7526 4.83389 12.6891 5.26216 12.5781C2.91445 12.1022 1.15361 10.04 1.15361 7.54954V7.48611C1.83569 7.86682 2.62891 8.10476 3.46958 8.13645C2.0895 7.21638 1.18535 5.64597 1.18535 3.86931C1.18535 2.91755 1.43911 2.04509 1.8833 1.28367C4.40552 4.3928 8.19678 6.42322 12.448 6.64534C12.3687 6.26462 12.3211 5.86809 12.3211 5.47151C12.3211 2.64788 14.6054 0.347778 17.4448 0.347778C18.9201 0.347778 20.2525 0.966431 21.1885 1.9658C22.3464 1.74373 23.4568 1.31541 24.4404 0.728491C24.0596 1.91824 23.2506 2.9176 22.1878 3.55208C23.2189 3.44109 24.2183 3.15549 25.1383 2.75896C24.4405 3.77415 23.568 4.6783 22.5686 5.40803V5.40803Z"
          fill="#8E9097"/>
</svg>
